<mxfile host="app.diagrams.net" agent="Mozilla/5.0 (Windows NT 10.0; Win64; x64) AppleWebKit/537.36 (KHTML, like Gecko) Chrome/130.0.0.0 Safari/537.36 OPR/115.0.0.0" version="25.0.3">
  <diagram name="Page-1" id="2YBvvXClWsGukQMizWep">
    <mxGraphModel dx="1150" dy="645" grid="1" gridSize="10" guides="1" tooltips="1" connect="1" arrows="1" fold="1" page="1" pageScale="1" pageWidth="850" pageHeight="1100" math="0" shadow="0">
      <root>
        <mxCell id="0" />
        <mxCell id="1" parent="0" />
        <mxCell id="WD-4mHUfXsS6PzfZIW1s-1" value="ms-cliente" style="shape=umlLifeline;perimeter=lifelinePerimeter;whiteSpace=wrap;html=1;container=0;dropTarget=0;collapsible=0;recursiveResize=0;outlineConnect=0;portConstraint=eastwest;newEdgeStyle={&quot;edgeStyle&quot;:&quot;elbowEdgeStyle&quot;,&quot;elbow&quot;:&quot;vertical&quot;,&quot;curved&quot;:0,&quot;rounded&quot;:0};labelBackgroundColor=none;" vertex="1" parent="1">
          <mxGeometry x="550" y="90" width="100" height="600" as="geometry" />
        </mxCell>
        <mxCell id="WD-4mHUfXsS6PzfZIW1s-2" value="" style="html=1;points=[];perimeter=orthogonalPerimeter;outlineConnect=0;targetShapes=umlLifeline;portConstraint=eastwest;newEdgeStyle={&quot;edgeStyle&quot;:&quot;elbowEdgeStyle&quot;,&quot;elbow&quot;:&quot;vertical&quot;,&quot;curved&quot;:0,&quot;rounded&quot;:0};labelBackgroundColor=none;" vertex="1" parent="WD-4mHUfXsS6PzfZIW1s-1">
          <mxGeometry x="45" y="90" width="10" height="510" as="geometry" />
        </mxCell>
        <mxCell id="WD-4mHUfXsS6PzfZIW1s-3" value="POST: /clientes/{id&lt;span style=&quot;font-size: 10px; text-align: left; text-wrap-mode: wrap;&quot;&gt;}&lt;/span&gt;" style="html=1;verticalAlign=bottom;endArrow=block;edgeStyle=elbowEdgeStyle;elbow=vertical;curved=0;rounded=0;labelBackgroundColor=none;fontColor=default;" edge="1" parent="1" source="WD-4mHUfXsS6PzfZIW1s-6" target="WD-4mHUfXsS6PzfZIW1s-2">
          <mxGeometry x="0.0013" relative="1" as="geometry">
            <mxPoint x="320" y="180" as="sourcePoint" />
            <Array as="points">
              <mxPoint x="405" y="180" />
            </Array>
            <mxPoint x="590" y="180" as="targetPoint" />
            <mxPoint as="offset" />
          </mxGeometry>
        </mxCell>
        <mxCell id="WD-4mHUfXsS6PzfZIW1s-4" value="response" style="html=1;verticalAlign=bottom;endArrow=open;dashed=1;endSize=8;edgeStyle=elbowEdgeStyle;elbow=vertical;curved=0;rounded=0;labelBackgroundColor=none;fontColor=default;" edge="1" parent="1" target="WD-4mHUfXsS6PzfZIW1s-6">
          <mxGeometry relative="1" as="geometry">
            <mxPoint x="320" y="400" as="targetPoint" />
            <Array as="points">
              <mxPoint x="415" y="400" />
            </Array>
            <mxPoint x="590" y="400" as="sourcePoint" />
          </mxGeometry>
        </mxCell>
        <mxCell id="WD-4mHUfXsS6PzfZIW1s-5" value="Cliente" style="shape=umlActor;verticalLabelPosition=bottom;verticalAlign=top;html=1;outlineConnect=0;labelBackgroundColor=none;" vertex="1" parent="1">
          <mxGeometry x="290" y="60" width="30" height="60" as="geometry" />
        </mxCell>
        <mxCell id="WD-4mHUfXsS6PzfZIW1s-6" value="" style="html=1;points=[];perimeter=orthogonalPerimeter;outlineConnect=0;targetShapes=umlLifeline;portConstraint=eastwest;newEdgeStyle={&quot;edgeStyle&quot;:&quot;elbowEdgeStyle&quot;,&quot;elbow&quot;:&quot;vertical&quot;,&quot;curved&quot;:0,&quot;rounded&quot;:0};labelBackgroundColor=none;" vertex="1" parent="1">
          <mxGeometry x="300" y="180" width="10" height="510" as="geometry" />
        </mxCell>
        <mxCell id="WD-4mHUfXsS6PzfZIW1s-7" value="" style="endArrow=none;dashed=1;html=1;rounded=0;labelBackgroundColor=none;fontColor=default;" edge="1" parent="1">
          <mxGeometry width="50" height="50" relative="1" as="geometry">
            <mxPoint x="304.55" y="180" as="sourcePoint" />
            <mxPoint x="305" y="140" as="targetPoint" />
          </mxGeometry>
        </mxCell>
        <mxCell id="WD-4mHUfXsS6PzfZIW1s-10" value="alt" style="shape=umlFrame;whiteSpace=wrap;html=1;pointerEvents=0;" vertex="1" parent="1">
          <mxGeometry x="40" y="310" width="600" height="180" as="geometry" />
        </mxCell>
        <mxCell id="WD-4mHUfXsS6PzfZIW1s-11" value="[Caso inválido: Cliente no existe]" style="text;html=1;align=center;verticalAlign=middle;whiteSpace=wrap;rounded=0;" vertex="1" parent="1">
          <mxGeometry x="110" y="310" width="180" height="30" as="geometry" />
        </mxCell>
        <mxCell id="WD-4mHUfXsS6PzfZIW1s-12" value="&lt;font style=&quot;font-size: 10px;&quot;&gt;HTTP 500 Internal Server Error&lt;/font&gt;&lt;div&gt;&lt;span style=&quot;font-size: 10px; background-color: initial;&quot;&gt;{&lt;/span&gt;&lt;/div&gt;&lt;div&gt;&lt;font style=&quot;font-size: 10px;&quot;&gt;&lt;span style=&quot;white-space: pre;&quot;&gt;&#x9;&lt;/span&gt;&quot;statusCode&quot;: 500,&lt;/font&gt;&lt;/div&gt;&lt;div&gt;&lt;font style=&quot;font-size: 10px;&quot;&gt;&lt;span style=&quot;white-space: pre;&quot;&gt;&#x9;&lt;/span&gt;&quot;error&quot;: &quot;Internal server error&quot;,&lt;/font&gt;&lt;/div&gt;&lt;div&gt;&lt;font style=&quot;font-size: 10px;&quot;&gt;&lt;span style=&quot;white-space: pre;&quot;&gt;&#x9;&lt;/span&gt;&quot;message&quot;: &quot;El cliente no existe&quot;&lt;/font&gt;&lt;/div&gt;&lt;div&gt;&lt;font style=&quot;font-size: 10px;&quot;&gt;}&lt;/font&gt;&lt;/div&gt;" style="shape=note;whiteSpace=wrap;html=1;backgroundOutline=1;darkOpacity=0.05;align=left;" vertex="1" parent="1">
          <mxGeometry x="50" y="360" width="240" height="120" as="geometry" />
        </mxCell>
        <mxCell id="WD-4mHUfXsS6PzfZIW1s-13" value="MongoDb" style="shape=cylinder3;whiteSpace=wrap;html=1;boundedLbl=1;backgroundOutline=1;size=15;" vertex="1" parent="1">
          <mxGeometry x="770" y="60" width="70" height="70" as="geometry" />
        </mxCell>
        <mxCell id="WD-4mHUfXsS6PzfZIW1s-14" value="" style="endArrow=none;dashed=1;html=1;rounded=0;entryX=0.5;entryY=1;entryDx=0;entryDy=0;entryPerimeter=0;" edge="1" parent="1" source="WD-4mHUfXsS6PzfZIW1s-22" target="WD-4mHUfXsS6PzfZIW1s-13">
          <mxGeometry width="50" height="50" relative="1" as="geometry">
            <mxPoint x="800" y="480" as="sourcePoint" />
            <mxPoint x="820" y="170" as="targetPoint" />
          </mxGeometry>
        </mxCell>
        <mxCell id="WD-4mHUfXsS6PzfZIW1s-15" value="findById in bd" style="html=1;verticalAlign=bottom;endArrow=block;curved=0;rounded=0;" edge="1" parent="1">
          <mxGeometry width="80" relative="1" as="geometry">
            <mxPoint x="610" y="200" as="sourcePoint" />
            <mxPoint x="800" y="200" as="targetPoint" />
          </mxGeometry>
        </mxCell>
        <mxCell id="WD-4mHUfXsS6PzfZIW1s-18" value="response" style="html=1;verticalAlign=bottom;endArrow=open;dashed=1;endSize=8;curved=0;rounded=0;" edge="1" parent="1">
          <mxGeometry relative="1" as="geometry">
            <mxPoint x="595" y="640" as="sourcePoint" />
            <mxPoint x="310" y="640" as="targetPoint" />
          </mxGeometry>
        </mxCell>
        <mxCell id="WD-4mHUfXsS6PzfZIW1s-19" value="&lt;font style=&quot;font-size: 10px;&quot;&gt;HTTP 200 Ok&lt;/font&gt;&lt;div&gt;&lt;font style=&quot;font-size: 10px;&quot;&gt;Content-Type: application/json&lt;/font&gt;&lt;/div&gt;&lt;div&gt;&lt;font style=&quot;font-size: 10px;&quot;&gt;{&lt;/font&gt;&lt;/div&gt;&lt;div&gt;&lt;font style=&quot;font-size: 10px;&quot;&gt;&lt;span style=&quot;white-space: pre;&quot;&gt;&#x9;&lt;/span&gt;&quot;id&lt;/font&gt;&lt;span style=&quot;font-size: 10px; background-color: initial;&quot;&gt;&quot;: &quot;11234-2342&quot;,&lt;/span&gt;&lt;/div&gt;&lt;div&gt;&lt;span style=&quot;font-size: 10px; background-color: initial;&quot;&gt;&lt;span style=&quot;white-space: pre;&quot;&gt;&#x9;&lt;/span&gt;&quot;tipoCliente&quot;: &quot;personal&quot;,&lt;br&gt;&lt;/span&gt;&lt;/div&gt;&lt;div&gt;&lt;span style=&quot;font-size: 10px; background-color: initial;&quot;&gt;&lt;span style=&quot;white-space: pre;&quot;&gt;&#x9;&lt;/span&gt;&quot;tipoDocumento&quot;: &quot;dni&quot;,&lt;br&gt;&lt;/span&gt;&lt;/div&gt;&lt;div&gt;&lt;span style=&quot;font-size: 10px; background-color: initial;&quot;&gt;&lt;span style=&quot;white-space: pre;&quot;&gt;&#x9;&lt;/span&gt;&quot;nroDocumento&quot;: &quot;72878511&quot;,&lt;br&gt;&lt;/span&gt;&lt;/div&gt;&lt;div&gt;&lt;span style=&quot;font-size: 10px; background-color: initial;&quot;&gt;&lt;span style=&quot;white-space: pre;&quot;&gt;&#x9;&lt;/span&gt;&quot;nombre&quot;: &quot;Joseph Junior Minchola Tello&quot;,&lt;br&gt;&lt;/span&gt;&lt;/div&gt;&lt;div&gt;&lt;span style=&quot;font-size: 10px; background-color: initial;&quot;&gt;&lt;span style=&quot;white-space: pre;&quot;&gt;&#x9;&lt;/span&gt;&quot;estado&quot;: true&lt;br&gt;&lt;/span&gt;&lt;/div&gt;&lt;div&gt;&lt;font style=&quot;font-size: 10px;&quot;&gt;}&lt;/font&gt;&lt;/div&gt;" style="shape=note;whiteSpace=wrap;html=1;backgroundOutline=1;darkOpacity=0.05;align=left;" vertex="1" parent="1">
          <mxGeometry x="70" y="540" width="220" height="150" as="geometry" />
        </mxCell>
        <mxCell id="WD-4mHUfXsS6PzfZIW1s-20" value="&lt;b&gt;&lt;font style=&quot;font-size: 15px;&quot;&gt;Obtener la información de un cliente por id&lt;/font&gt;&lt;/b&gt;" style="text;html=1;align=center;verticalAlign=middle;resizable=0;points=[];autosize=1;strokeColor=none;fillColor=none;" vertex="1" parent="1">
          <mxGeometry x="370" y="20" width="330" height="30" as="geometry" />
        </mxCell>
        <mxCell id="WD-4mHUfXsS6PzfZIW1s-23" value="" style="endArrow=none;dashed=1;html=1;rounded=0;entryX=0.5;entryY=1;entryDx=0;entryDy=0;entryPerimeter=0;" edge="1" parent="1" target="WD-4mHUfXsS6PzfZIW1s-22">
          <mxGeometry width="50" height="50" relative="1" as="geometry">
            <mxPoint x="810" y="270" as="sourcePoint" />
            <mxPoint x="805" y="130" as="targetPoint" />
          </mxGeometry>
        </mxCell>
        <mxCell id="WD-4mHUfXsS6PzfZIW1s-22" value="" style="html=1;points=[];perimeter=orthogonalPerimeter;outlineConnect=0;targetShapes=umlLifeline;portConstraint=eastwest;newEdgeStyle={&quot;edgeStyle&quot;:&quot;elbowEdgeStyle&quot;,&quot;elbow&quot;:&quot;vertical&quot;,&quot;curved&quot;:0,&quot;rounded&quot;:0};labelBackgroundColor=none;" vertex="1" parent="1">
          <mxGeometry x="800" y="200" width="10" height="70" as="geometry" />
        </mxCell>
        <mxCell id="WD-4mHUfXsS6PzfZIW1s-24" value="response" style="html=1;verticalAlign=bottom;endArrow=open;dashed=1;endSize=8;edgeStyle=elbowEdgeStyle;elbow=vertical;curved=0;rounded=0;labelBackgroundColor=none;fontColor=default;" edge="1" parent="1">
          <mxGeometry relative="1" as="geometry">
            <mxPoint x="610" y="270" as="targetPoint" />
            <Array as="points">
              <mxPoint x="625" y="270" />
            </Array>
            <mxPoint x="800" y="270" as="sourcePoint" />
          </mxGeometry>
        </mxCell>
      </root>
    </mxGraphModel>
  </diagram>
</mxfile>
